<svg xmlns="http://www.w3.org/2000/svg" >

  <symbol id="switzerland" viewBox="0 0 40 40" fill="none">
    <path d="M36.4778 2.17212H3.52219C1.58008 2.17212 0 3.7522 0 5.69431V34.3057C0 36.2478 1.58008 37.8279 3.52219 37.8279H36.4778C38.4199 37.8279 40 36.2478 40 34.3057V5.69431C40 3.7522 38.4199 2.17212 36.4778 2.17212ZM37.6562 34.3057C37.6562 34.9555 37.1276 35.4841 36.4778 35.4841H3.52219C2.87242 35.4841 2.34375 34.9555 2.34375 34.3057V5.69431C2.34375 5.04454 2.87242 4.51587 3.52219 4.51587H36.4778C37.1276 4.51587 37.6562 5.04454 37.6562 5.69431V34.3057Z" fill="var(--col1, #725749)"/>
    <path d="M26.3785 16.5037H23.4962V13.6215C23.4962 12.9743 22.9715 12.4496 22.3244 12.4496H17.6756C17.0284 12.4496 16.5037 12.9743 16.5037 13.6215V16.5037H13.6215C12.9743 16.5037 12.4496 17.0284 12.4496 17.6756V22.3244C12.4496 22.9715 12.9743 23.4962 13.6215 23.4962H16.5037V26.3785C16.5037 27.0257 17.0284 27.5504 17.6756 27.5504H22.3244C22.9715 27.5504 23.4962 27.0257 23.4962 26.3785V23.4962H26.3785C27.0257 23.4962 27.5504 22.9715 27.5504 22.3244V17.6756C27.5504 17.0284 27.0257 16.5037 26.3785 16.5037ZM25.2066 21.1525H22.3244C21.6772 21.1525 21.1525 21.6772 21.1525 22.3244V25.2066H18.8475V22.3244C18.8475 21.6772 18.3228 21.1525 17.6756 21.1525H14.7933V18.8475H17.6756C18.3228 18.8475 18.8475 18.3228 18.8475 17.6756V14.7933H21.1525V17.6756C21.1525 18.3228 21.6772 18.8475 22.3244 18.8475H25.2066V21.1525Z" fill="var(--col1, #725749)"/>
  </symbol>

  <symbol id="verified" viewBox="0 0 40 40" fill="none">
    <path d="M27.7875 15.8542C28.2593 15.3503 28.2332 14.5592 27.7292 14.0875C27.2253 13.6157 26.4342 13.6417 25.9625 14.1457L17.5133 23.171L14.0375 19.4582C13.5657 18.9542 12.7747 18.9282 12.2707 19.4C11.7667 19.8717 11.7407 20.6628 12.2125 21.1667L16.6007 25.8542C16.8371 26.1067 17.1675 26.25 17.5133 26.25C17.8591 26.25 18.1895 26.1067 18.4258 25.8542L27.7875 15.8542Z" fill="var(--col1, #725749)"/>
    <path fill-rule="evenodd" clip-rule="evenodd" d="M23.6371 2.68656C21.5906 0.771145 18.4094 0.771145 16.3629 2.68656L14.5908 4.34517C14.0913 4.81265 13.439 5.08282 12.7553 5.10544L10.3294 5.1857C7.52788 5.2784 5.2784 7.52788 5.1857 10.3294L5.10544 12.7553C5.08282 13.439 4.81265 14.0913 4.34517 14.5908L2.68656 16.3629C0.771145 18.4094 0.771145 21.5906 2.68656 23.6371L4.34517 25.4093C4.81265 25.9088 5.08282 26.561 5.10544 27.2448L5.1857 29.6706C5.2784 32.4721 7.52788 34.7216 10.3294 34.8143L12.7553 34.8946C13.439 34.9172 14.0913 35.1874 14.5908 35.6548L16.3629 37.3134C18.4094 39.2289 21.5906 39.2289 23.6371 37.3134L25.4093 35.6548C25.9088 35.1874 26.561 34.9172 27.2447 34.8946L29.6706 34.8143C32.4721 34.7216 34.7216 32.4721 34.8143 29.6706L34.8946 27.2448C34.9172 26.561 35.1874 25.9088 35.6548 25.4093L37.3134 23.6371C39.2289 21.5906 39.2289 18.4094 37.3134 16.3629L35.6548 14.5908C35.1874 14.0913 34.9172 13.439 34.8946 12.7553L34.8143 10.3294C34.7216 7.52788 32.4721 5.2784 29.6706 5.1857L27.2448 5.10544C26.561 5.08282 25.9088 4.81265 25.4093 4.34517L23.6371 2.68656ZM18.0712 4.51182C19.1565 3.49606 20.8435 3.49606 21.9288 4.51182L23.7009 6.17043C24.6428 7.05194 25.8728 7.56144 27.1621 7.60406L29.5879 7.68431C31.0736 7.7335 32.2665 8.92644 32.3157 10.4121L32.3959 12.8379C32.4386 14.1273 32.9481 15.3573 33.8296 16.2991L35.4882 18.0712C36.5039 19.1565 36.5039 20.8435 35.4882 21.9288L33.8296 23.7009C32.9481 24.6428 32.4386 25.8728 32.3959 27.1621L32.3157 29.5879C32.2665 31.0736 31.0736 32.2665 29.5879 32.3157L27.1621 32.3959C25.8728 32.4386 24.6428 32.9481 23.7009 33.8296L21.9288 35.4882C20.8435 36.5039 19.1565 36.5039 18.0712 35.4882L16.2991 33.8296C15.3573 32.9481 14.1273 32.4386 12.8379 32.3959L10.4121 32.3157C8.92644 32.2665 7.7335 31.0736 7.68431 29.5879L7.60406 27.1621C7.56144 25.8728 7.05194 24.6428 6.17043 23.7009L4.51182 21.9288C3.49606 20.8435 3.49606 19.1565 4.51182 18.0712L6.17043 16.2991C7.05194 15.3573 7.56144 14.1273 7.60406 12.8379L7.68431 10.4121C7.7335 8.92644 8.92644 7.7335 10.4121 7.68431L12.8379 7.60406C14.1273 7.56144 15.3573 7.05194 16.2991 6.17043L18.0712 4.51182Z" fill="var(--col1, #725749)"/>
  </symbol>

  <symbol id="leaf" viewBox="0 0 40 40" fill="none">
    <g clip-path="url(#clip0_0_59)">
      <path d="M39.9347 1.32006C39.7756 0.836074 39.3521 0.491699 38.8458 0.43459C38.8108 0.43084 35.9015 0.103184 31.6892 0.103027C28.9377 0.103105 25.6302 0.242637 22.1973 0.708887C19.6226 1.05896 16.9769 1.5924 14.4386 2.39693C12.5351 3.00061 10.6913 3.75693 8.98547 4.70959C7.70641 5.4242 6.50476 6.24975 5.41922 7.20576C3.79125 8.63842 2.42492 10.3704 1.47602 12.4303C0.525703 14.4893 -0.00109396 16.8669 -2.07606e-07 19.5572C-2.07606e-07 21.3821 0.24 23.3519 0.745468 25.4784C1.21273 27.4441 1.90711 29.5447 2.85102 31.7937C1.87117 33.8217 1.01672 35.9604 0.320078 38.2131C0.107969 38.8987 0.491875 39.6266 1.17766 39.8386C1.86328 40.0507 2.59117 39.6668 2.80328 38.981C3.38273 37.1078 4.07844 35.3172 4.86984 33.6054C6.83789 34.5871 8.83508 35.3623 10.8216 35.9169C13.2173 36.5854 15.5978 36.9347 17.8928 36.9348C20.0639 36.9348 22.1597 36.6216 24.1087 35.9641C25.57 35.4712 26.9482 34.7839 28.2048 33.8943C30.0904 32.5608 31.6968 30.7704 32.9067 28.5408C34.1182 26.3107 34.9362 23.6473 35.2914 20.5532C36.2033 12.6069 37.3659 8.02459 38.2655 5.48889C38.7148 4.22092 39.0973 3.46537 39.3416 3.0549C39.4638 2.84959 39.5512 2.73045 39.5945 2.67537C39.6054 2.66162 39.6135 2.65178 39.6187 2.64576L39.6254 2.63795L39.6252 2.63771C39.9667 2.29146 40.0877 1.78537 39.9347 1.32006ZM4.45242 28.7625C3.95383 27.3928 3.5643 26.0987 3.27406 24.8776C2.8093 22.9218 2.59914 21.1537 2.59914 19.5572C2.59945 17.6962 2.8832 16.0687 3.38766 14.6283C3.82969 13.3679 4.44141 12.2485 5.19797 11.2404C5.86008 10.3588 6.63398 9.56295 7.50398 8.84318C9.02555 7.58381 10.8437 6.55896 12.8368 5.73889C15.8254 4.50756 19.2021 3.74115 22.4992 3.291C25.7965 2.8399 29.0133 2.70201 31.6893 2.70217C32.7004 2.70217 33.6341 2.72178 34.4665 2.75123C31.0399 4.3685 26.3727 6.87014 21.5187 10.3876C21.5248 10.3161 21.5315 10.2437 21.5391 10.1703C21.6192 9.38553 21.7802 8.49365 22.0755 7.59021C22.2984 6.90795 21.9259 6.1742 21.2437 5.95139C20.5615 5.72857 19.8277 6.101 19.6049 6.78318C19.2403 7.90006 19.0493 8.97123 18.9535 9.9056C18.8898 10.5287 18.8685 11.0912 18.8685 11.5672C18.8685 11.8051 18.8738 12.0214 18.8819 12.2129C18.8844 12.2725 18.8872 12.329 18.8902 12.3836C18.2667 12.8795 17.6431 13.3918 17.0219 13.9219C14.7266 15.8811 12.4632 18.077 10.344 20.5217C10.3308 20.2528 10.3236 19.9858 10.3236 19.7216C10.3236 19.1115 10.3572 18.5145 10.4179 17.9343C10.5939 16.2487 10.9992 14.7038 11.4637 13.3962C11.7039 12.7198 11.3503 11.9769 10.6741 11.7367C9.99765 11.4965 9.25469 11.8501 9.01453 12.5264C8.49437 13.9917 8.035 15.7323 7.83289 17.664C7.76344 18.3287 7.72453 19.0158 7.72453 19.7215C7.72445 20.8762 7.82976 22.0815 8.0743 23.3164C7.8168 23.6555 7.56125 23.9972 7.31016 24.3449C6.29727 25.7469 5.33945 27.2192 4.45242 28.7625ZM35.043 7.10725C34.2482 10.0038 33.4054 14.1953 32.709 20.2568C32.4215 22.7587 31.8106 24.8794 30.955 26.6516C30.3128 27.9812 29.5333 29.1162 28.6397 30.0775C27.2987 31.5182 25.6996 32.5735 23.8888 33.2797C22.0787 33.9848 20.0548 34.3359 17.8926 34.3359C15.862 34.3361 13.7118 34.0256 11.5202 33.4137C9.70273 32.9064 7.85726 32.1914 6.02875 31.2794C7.04984 29.3703 8.18906 27.5671 9.41703 25.8665C9.60094 25.6119 9.7875 25.3602 9.97531 25.1101C10.2823 25.2194 10.7537 25.3776 11.361 25.5523C12.4617 25.8689 14.0061 26.2395 15.8185 26.464C16.8126 26.5869 17.8875 26.6657 19.0146 26.6658C19.9424 26.6658 20.9055 26.6123 21.8874 26.4852C22.5992 26.393 23.1016 25.7413 23.0094 25.0295C22.9172 24.3177 22.2655 23.8154 21.5537 23.9076C20.6945 24.0188 19.8424 24.0666 19.0145 24.0666C18.0088 24.0666 17.0391 23.9961 16.1374 23.8845C14.4934 23.6813 13.0762 23.3415 12.0795 23.0546C11.9434 23.0154 11.816 22.9774 11.6961 22.9408C14.4 19.7104 17.3944 16.9027 20.4071 14.497C20.5081 14.5391 20.6177 14.5832 20.7366 14.6288C21.4223 14.8918 22.4007 15.2012 23.6158 15.4074C24.4258 15.5448 25.3409 15.6363 26.3426 15.6363C26.8434 15.6363 27.3658 15.6134 27.9071 15.5621C28.6216 15.4944 29.1459 14.8601 29.0782 14.1456C29.0105 13.4311 28.3762 12.9068 27.6617 12.9745C27.2046 13.0178 26.7643 13.0372 26.3427 13.0372C25.4992 13.0372 24.7298 12.9601 24.0507 12.8449C23.631 12.7737 23.2464 12.6877 22.9002 12.5967C23.1611 12.4066 23.4218 12.2189 23.6817 12.0348C28.1812 8.84693 32.4923 6.55131 35.6641 5.05959C35.4628 5.65787 35.2548 6.33631 35.043 7.10725Z" fill="var(--col1, #725749)"/>
    </g>
    <defs>
      <clipPath id="clip0_0_59">
        <rect width="40" height="40" fill="white"/>
      </clipPath>
    </defs>
  </symbol>

  <symbol id="delivery" viewBox="0 0 50 40" fill="none">
    <path d="M48.0534 9.59466L31.5812 0.549761C31.2942 0.392267 30.9463 0.392267 30.6594 0.549761L24.4651 3.95104C24.3252 3.98995 24.1946 4.0614 24.0839 4.16016L14.1872 9.59466C13.8808 9.763 13.6904 10.0847 13.6904 10.4341V12.3921H2.6411C2.11212 12.3921 1.68341 12.8212 1.68341 13.3498C1.68341 13.8788 2.11212 14.3075 2.6411 14.3075H13.6904V17.7552H8.19979C7.67082 17.7552 7.24211 18.1843 7.24211 18.7129C7.24211 19.2418 7.67082 19.6706 8.19979 19.6706H13.6904V24.6505H5.64584C5.11686 24.6505 4.68815 25.0796 4.68815 25.6082C4.68815 26.1372 5.11686 26.5659 5.64584 26.5659H13.6904V28.5243C13.6904 28.8737 13.8808 29.1954 14.1872 29.3638L30.6594 38.4087C30.8031 38.4876 30.9617 38.5269 31.1203 38.5269C31.2789 38.5269 31.4375 38.4876 31.5812 38.4087L48.0534 29.3638C48.3598 29.1954 48.5502 28.8737 48.5502 28.5243V24.2357C48.5502 23.7071 48.1215 23.278 47.5925 23.278C47.0635 23.278 46.6348 23.7071 46.6348 24.2357V27.9575L32.078 35.9509V20.0458L36.7074 17.5038V21.538C36.7074 21.877 36.8862 22.1905 37.1777 22.3626C37.3277 22.4512 37.4964 22.4957 37.6651 22.4957C37.8237 22.4957 37.9827 22.4565 38.1267 22.3771L41.6567 20.4345C41.9623 20.2661 42.1524 19.9448 42.1524 19.5954V14.514L46.6348 12.0528V16.5742C46.6348 17.1031 47.0635 17.5319 47.5925 17.5319C48.1215 17.5319 48.5502 17.1031 48.5502 16.5742V10.4341C48.5502 10.0847 48.3598 9.763 48.0534 9.59466ZM30.1626 35.9509L15.6058 27.9575V12.0528L30.1626 20.0458V35.9509ZM31.1203 18.3867L16.6379 10.4341L21.1895 7.93479L35.6723 15.8873L31.1203 18.3867ZM37.6621 14.7946L23.1793 6.84206L24.7494 5.98014L39.2318 13.9327L37.6621 14.7946ZM40.237 19.0294L38.6228 19.9178V16.4522L40.237 15.5656V19.0294ZM41.2216 12.8399L26.7392 4.88741L31.1203 2.48197L45.6027 10.4341L41.2216 12.8399Z" fill="var(--col1, #725749)"/>
    <path d="M37.3512 15.2056C37.1556 15.2056 36.9635 15.2843 36.8251 15.4235C36.6868 15.5619 36.6071 15.7531 36.6071 15.9496C36.6071 16.1452 36.6868 16.3373 36.8251 16.4757C36.9635 16.614 37.1556 16.6937 37.3512 16.6937C37.5468 16.6937 37.7389 16.614 37.8773 16.4757C38.0156 16.3373 38.0952 16.1452 38.0952 15.9496C38.0952 15.7531 38.0156 15.5619 37.8773 15.4235C37.7389 15.2843 37.5468 15.2056 37.3512 15.2056Z" fill="var(--col1, #725749)"/>
    <path d="M1.81042 19.2478H0.744048C0.333078 19.2478 0 19.5812 0 19.9919C0 20.4028 0.333078 20.7359 0.744048 20.7359H1.81042C2.22139 20.7359 2.55447 20.4028 2.55447 19.9919C2.55447 19.5812 2.22139 19.2478 1.81042 19.2478Z" fill="var(--col1, #725749)"/>
    <path d="M4.51428 14.6347C4.51428 14.4391 4.43464 14.2472 4.29601 14.1089C4.15766 13.9703 3.96583 13.8906 3.77023 13.8906C3.57434 13.8906 3.38251 13.9703 3.24417 14.1089C3.10495 14.2472 3.02618 14.4391 3.02618 14.6347C3.02618 14.8306 3.10495 15.0224 3.24417 15.1607C3.38251 15.2991 3.57434 15.3787 3.77023 15.3787C3.96583 15.3787 4.15766 15.2994 4.29601 15.1607C4.43464 15.0224 4.51428 14.8306 4.51428 14.6347Z" fill="var(--col1, #725749)"/>
  </symbol>

  <symbol id="location" width="20" height="20" viewBox="0 0 20 20" fill="none">
    <g clip-path="url(#clip0_0_24)">
      <path d="M10 0C5.865 0 2.5 3.38833 2.5 7.55417C2.5 13.4733 9.295 19.585 9.58417 19.8417C9.70333 19.9475 9.85167 20 10 20C10.1483 20 10.2967 19.9475 10.4158 19.8425C10.705 19.585 17.5 13.4733 17.5 7.55417C17.5 3.38833 14.135 0 10 0ZM10 11.6667C7.7025 11.6667 5.83333 9.7975 5.83333 7.5C5.83333 5.2025 7.7025 3.33333 10 3.33333C12.2975 3.33333 14.1667 5.2025 14.1667 7.5C14.1667 9.7975 12.2975 11.6667 10 11.6667Z" fill="var(--col1, #725749)"/>
    </g>
    <defs>
      <clipPath id="clip0_0_24">
        <rect width="20" height="20" fill="white"/>
      </clipPath>
    </defs>
</symbol>

<symbol id="arrow" viewBox="0 0 31 8" fill="none">
  <path d="M30.3536 4.35355C30.5488 4.15829 30.5488 3.84171 30.3536 3.64645L27.1716 0.464466C26.9763 0.269204 26.6597 0.269204 26.4645 0.464466C26.2692 0.659728 26.2692 0.976311 26.4645 1.17157L29.2929 4L26.4645 6.82843C26.2692 7.02369 26.2692 7.34027 26.4645 7.53553C26.6597 7.7308 26.9763 7.7308 27.1716 7.53553L30.3536 4.35355ZM0 4.5H30V3.5H0V4.5Z" fill="white"/>
</symbol>

<symbol id="phone" width="24" height="24" viewBox="0 0 24 24" fill="none">
  <g clip-path="url(#clip0_0_283)">
    <path d="M4.84549 15.9536C7.21267 18.7833 10.0622 21.0112 13.3146 22.5877C14.5529 23.1745 16.2089 23.8707 18.0539 23.9901C18.1683 23.995 18.2777 24 18.3921 24C19.6304 24 20.625 23.5723 21.4356 22.6921C21.4406 22.6871 21.4505 22.6772 21.4555 22.6672C21.744 22.3191 22.0722 22.0058 22.4153 21.6726C22.6491 21.4488 22.8878 21.2151 23.1165 20.9764C24.1758 19.8724 24.1758 18.47 23.1066 17.4007L20.1178 14.4119C19.6105 13.8848 19.0038 13.6063 18.3673 13.6063C17.7307 13.6063 17.119 13.8848 16.5968 14.407L14.8165 16.1873C14.6524 16.0928 14.4833 16.0083 14.3241 15.9287C14.1252 15.8293 13.9412 15.7348 13.7771 15.6303C12.1559 14.6009 10.6839 13.2582 9.27649 11.5325C8.56534 10.6324 8.08793 9.8765 7.75473 9.10568C8.2222 8.68297 8.65983 8.24037 9.08254 7.80771C9.23173 7.65354 9.3859 7.49938 9.54006 7.34521C10.0772 6.80812 10.3656 6.18649 10.3656 5.55491C10.3656 4.92333 10.0821 4.3017 9.54006 3.76461L8.05809 2.28264C7.88403 2.10858 7.71992 1.93949 7.55084 1.76544C7.22262 1.42727 6.87947 1.07915 6.54131 0.765852C6.02908 0.263572 5.42734 0 4.79079 0C4.15921 0 3.5525 0.263572 3.02038 0.770825L1.16045 2.63075C0.484116 3.30709 0.10119 4.12764 0.0216206 5.0775C-0.0728675 6.26606 0.145947 7.52922 0.712876 9.05595C1.58316 11.4182 2.89605 13.6113 4.84549 15.9536ZM1.23505 5.18193C1.29472 4.52051 1.54835 3.9685 2.02576 3.49109L3.87574 1.64111C4.16418 1.36262 4.48246 1.2184 4.79079 1.2184C5.09414 1.2184 5.40247 1.36262 5.68594 1.65106C6.01913 1.95939 6.33244 2.28264 6.67061 2.62578C6.83969 2.79983 7.01375 2.97389 7.1878 3.15292L8.66978 4.63489C8.97811 4.94322 9.13725 5.25653 9.13725 5.56486C9.13725 5.87319 8.97811 6.18649 8.66978 6.49482C8.51561 6.64898 8.36145 6.80812 8.20728 6.96229C7.74479 7.42976 7.31213 7.87236 6.83472 8.29507C6.82477 8.30501 6.8198 8.30999 6.80985 8.31993C6.39709 8.7327 6.46174 9.12557 6.5612 9.42395C6.56617 9.43887 6.57115 9.44882 6.57612 9.46374C6.95904 10.3838 7.49116 11.259 8.32166 12.3034C9.81358 14.1434 11.3851 15.5707 13.1157 16.6697C13.3295 16.809 13.5583 16.9184 13.7721 17.0278C13.9711 17.1272 14.1551 17.2217 14.3192 17.3261C14.3391 17.3361 14.354 17.346 14.3739 17.356C14.538 17.4405 14.6971 17.4803 14.8563 17.4803C15.2541 17.4803 15.5127 17.2267 15.5973 17.1421L17.4572 15.2822C17.7456 14.9938 18.0589 14.8396 18.3673 14.8396C18.7452 14.8396 19.0535 15.0734 19.2475 15.2822L22.2462 18.276C22.843 18.8728 22.838 19.5193 22.2313 20.1509C22.0224 20.3746 21.8036 20.5885 21.5699 20.8123C21.2218 21.1504 20.8588 21.4986 20.5305 21.8914C19.9586 22.5081 19.2773 22.7965 18.3971 22.7965C18.3125 22.7965 18.223 22.7915 18.1385 22.7866C16.5073 22.6821 14.9905 22.0456 13.8517 21.5035C10.7585 20.0066 8.04317 17.8831 5.79037 15.1877C3.93542 12.9548 2.68718 10.8761 1.86165 8.64816C1.34943 7.28056 1.15548 6.18152 1.23505 5.18193Z" fill="#E8DEDA"/>
  </g>
  <defs>
    <clipPath id="clip0_0_283">
      <rect width="24" height="24" fill="white"/>
    </clipPath>
  </defs>
</symbol>

<symbol id="mail" width="24" height="24" viewBox="0 0 24 24" fill="none">
  <path d="M21.8906 2.85938H2.10938C0.947719 2.85938 0 3.80606 0 4.96875V19.0312C0 20.19 0.9435 21.1406 2.10938 21.1406H21.8906C23.0494 21.1406 24 20.1971 24 19.0312V4.96875C24 3.81 23.0565 2.85938 21.8906 2.85938ZM21.5993 4.26562L12.0447 13.8203L2.40745 4.26562H21.5993ZM1.40625 18.7401V5.25323L8.1787 11.9676L1.40625 18.7401ZM2.40061 19.7344L9.17733 12.9577L11.5519 15.3118C11.8267 15.5843 12.2703 15.5835 12.5441 15.3097L14.8594 12.9944L21.5994 19.7344H2.40061ZM22.5938 18.74L15.8537 12L22.5938 5.25994V18.74Z" fill="#E8DEDA"/>
</symbol>

</svg>